# xmcd
#
# Track frame offsets:
#	150
#	16727
#	30317
#	44670
#	55240
#	68235
#	85382
#	94127
#	107867
#	121367
#	137090
#	167700
#
# Disc length: 2351 seconds
#
# Revision: 1
# Processed by: cddbd v1.5.2PL0 Copyright (c) Steve Scherf et al.
# Submitted via: audiograbber 1.83.01
#
DISCID=9f092d0c
DTITLE=Various Artist - CDXMAS 1006
DYEAR=1994
DGENRE=Country
TTITLE0=Doug Wayne - Almost Time For Christmas
TTITLE1=Reddmann - Chasin' That Neon Reindeer
TTITLE2=Amy Jane Welch - Christmas Spirit
TTITLE3=George T Bowers - Christopher The Christmas Tree
TTITLE4=Big Ed Johnson - Don't Give Me A Doggie For Christmas
TTITLE5=Jerry Jeff Walker - Here Comes Santa Claus - Up On The Housetop
TTITLE6=Dee McCall  - Hey Santa
TTITLE7=Caroling Cattle - Santa Cow
TTITLE8=Randy Beard - The Christmas Gift
TTITLE9=Joey Reed - The Day After Christmas
TTITLE10=Seven Gates - The Little Drummer Boy
TTITLE11=Snoopy - Sleigh Ride
EXTD=
EXTT0=
EXTT1=
EXTT2=
EXTT3=
EXTT4=
EXTT5=
EXTT6=
EXTT7=
EXTT8=
EXTT9=
EXTT10=
EXTT11=
PLAYORDER=
